<svg aria-hidden="true" style="position: absolute; width: 0; height: 0; overflow: hidden;" version="1.1" xmlns="http://www.w3.org/2000/svg" xmlns:xlink="http://www.w3.org/1999/xlink">
<defs>
<symbol id="icon-menu" viewBox="0 0 48 32">
<path stroke-linejoin="miter" stroke-linecap="butt" stroke-miterlimit="4" stroke-width="2.56" d="M0 1.6h48"></path>
<path stroke-linejoin="miter" stroke-linecap="butt" stroke-miterlimit="4" stroke-width="2.56" d="M0 16h48"></path>
<path stroke-linejoin="miter" stroke-linecap="butt" stroke-miterlimit="4" stroke-width="2.56" d="M0 30.4h48"></path>
</symbol>
<symbol id="icon-linkedin" viewBox="0 0 35 32">
<path d="M33.935 32v-0.001h0.008v-11.736c0-5.741-1.254-10.164-8.062-10.164-3.273 0-5.469 1.771-6.366 3.449h-0.095v-2.913h-6.455v21.364h6.721v-10.579c0-2.785 0.536-5.479 4.034-5.479 3.447 0 3.499 3.179 3.499 5.657v10.401h6.715z"></path>
<path d="M2.021 10.636h6.729v21.364h-6.729v-21.364z"></path>
<path d="M5.383 0c-2.152 0-3.898 1.721-3.898 3.843s1.746 3.879 3.898 3.879c2.152 0 3.898-1.757 3.898-3.879-0.001-2.121-1.747-3.843-3.898-3.843v0z"></path>
</symbol>
<symbol id="icon-facebook" viewBox="0 0 34 32">
<path d="M22.092 5.313h2.963v-5.088c-0.511-0.069-2.269-0.225-4.317-0.225-4.272 0-7.199 2.649-7.199 7.519v4.481h-4.714v5.688h4.714v14.312h5.78v-14.311h4.524l0.718-5.688h-5.243v-3.919c0.001-1.644 0.45-2.769 2.774-2.769z"></path>
</symbol>
<symbol id="icon-twitter" viewBox="0 0 34 32">
<path d="M33.486 6.078c-1.207 0.522-2.493 0.868-3.834 1.036 1.379-0.812 2.432-2.088 2.927-3.626-1.286 0.756-2.706 1.29-4.219 1.588-1.221-1.282-2.962-2.076-4.86-2.076-3.684 0-6.65 2.948-6.65 6.562 0 0.52 0.045 1.020 0.154 1.496-5.532-0.266-10.427-2.88-13.715-6.862-0.574 0.982-0.911 2.106-0.911 3.316 0 2.272 1.187 4.286 2.956 5.452-1.069-0.020-2.118-0.326-3.006-0.808 0 0.020 0 0.046 0 0.072 0 3.188 2.306 5.836 5.331 6.446-0.542 0.146-1.132 0.216-1.745 0.216-0.426 0-0.856-0.024-1.26-0.112 0.862 2.598 3.309 4.508 6.218 4.57-2.264 1.746-5.138 2.798-8.25 2.798-0.546 0-1.069-0.024-1.592-0.090 2.948 1.874 6.441 2.944 10.208 2.944 12.245 0 18.939-10 18.939-18.668 0-0.29-0.010-0.57-0.024-0.848 1.321-0.924 2.43-2.078 3.335-3.406z"></path>
</symbol>
<symbol id="icon-instagram" viewBox="0 0 34 32">
<path d="M32.425 9.408c-0.076-1.7-0.355-2.869-0.755-3.882-0.412-1.075-1.046-2.038-1.877-2.838-0.812-0.813-1.794-1.444-2.872-1.844-1.033-0.394-2.213-0.669-3.937-0.744-1.737-0.081-2.289-0.1-6.696-0.1s-4.958 0.019-6.689 0.094c-1.725 0.075-2.91 0.35-3.937 0.744-1.091 0.406-2.067 1.031-2.879 1.85-0.824 0.8-1.464 1.769-1.87 2.832-0.399 1.019-0.678 2.182-0.754 3.882-0.082 1.713-0.102 2.257-0.102 6.601s0.019 4.888 0.095 6.595c0.076 1.7 0.355 2.869 0.755 3.882 0.412 1.075 1.052 2.038 1.877 2.838 0.812 0.813 1.794 1.444 2.872 1.844 1.034 0.394 2.213 0.669 3.938 0.744 1.731 0.075 2.283 0.094 6.689 0.094s4.958-0.019 6.689-0.094c1.724-0.075 2.91-0.35 3.937-0.744 2.181-0.832 3.906-2.532 4.749-4.682 0.399-1.019 0.678-2.182 0.754-3.882 0.076-1.707 0.095-2.251 0.095-6.595s-0.006-4.888-0.082-6.595zM29.503 22.473c-0.070 1.563-0.336 2.407-0.558 2.969-0.545 1.394-1.668 2.5-3.082 3.038-0.571 0.219-1.433 0.481-3.012 0.55-1.712 0.075-2.225 0.094-6.556 0.094s-4.851-0.019-6.556-0.094c-1.585-0.069-2.441-0.331-3.012-0.55-0.704-0.256-1.344-0.663-1.864-1.194-0.539-0.519-0.951-1.144-1.211-1.838-0.222-0.563-0.488-1.413-0.558-2.969-0.076-1.688-0.095-2.194-0.095-6.464s0.019-4.782 0.095-6.464c0.070-1.563 0.336-2.407 0.558-2.969 0.26-0.694 0.672-1.325 1.218-1.838 0.526-0.531 1.16-0.938 1.864-1.194 0.571-0.219 1.433-0.481 3.012-0.55 1.712-0.075 2.226-0.094 6.556-0.094 4.337 0 4.85 0.019 6.556 0.094 1.585 0.069 2.441 0.331 3.012 0.55 0.704 0.256 1.344 0.662 1.864 1.194 0.539 0.519 0.951 1.144 1.211 1.838 0.222 0.563 0.488 1.413 0.558 2.969 0.076 1.688 0.095 2.194 0.095 6.464s-0.019 4.77-0.095 6.458z"></path>
<path d="M16.289 7.783c-4.603 0-8.338 3.682-8.338 8.22s3.735 8.22 8.338 8.22c4.603 0 8.338-3.682 8.338-8.22s-3.735-8.22-8.338-8.22zM16.289 21.336c-2.986 0-5.409-2.388-5.409-5.332s2.422-5.332 5.409-5.332c2.986 0 5.408 2.388 5.408 5.332s-2.422 5.332-5.408 5.332v0z"></path>
<path d="M26.903 7.458c0 1.060-0.872 1.919-1.947 1.919s-1.947-0.859-1.947-1.919c0-1.060 0.872-1.919 1.947-1.919s1.947 0.859 1.947 1.919v0z"></path>
</symbol>
</defs>
</svg>